HIERARCHY
ROOT Hips
{
	OFFSET 0.000000 0.000000 0.000000 
	CHANNELS 6 Xposition Yposition Zposition Zrotation Yrotation Xrotation
	JOINT LHipJoint
	{
		OFFSET 0.000000 0.000000 0.000000 
		CHANNELS 3 Zrotation Yrotation Xrotation
		JOINT LeftUpLeg
		{
			OFFSET 1.091560 -1.614060 0.765000 
			CHANNELS 3 Zrotation Yrotation Xrotation
			JOINT LeftLeg
			{
				OFFSET 2.337500 -6.422250 0.000000 
				CHANNELS 3 Zrotation Yrotation Xrotation
				JOINT LeftFoot
				{
					OFFSET 2.492470 -6.848000 0.000000 
					CHANNELS 3 Zrotation Yrotation Xrotation
					JOINT LeftToeBase
					{
						OFFSET 0.153120 -0.420690 1.454610 
						CHANNELS 3 Zrotation Yrotation Xrotation
						End Site
						{
							OFFSET 0.000000 -0.000000 0.770460 
						}
					}
				}
			}
		}
	}
	JOINT RHipJoint
	{
		OFFSET 0.000000 0.000000 0.000000 
		CHANNELS 3 Zrotation Yrotation Xrotation
		JOINT RightUpLeg
		{
			OFFSET -0.998830 -1.614060 0.765000 
			CHANNELS 3 Zrotation Yrotation Xrotation
			JOINT RightLeg
			{
				OFFSET -2.368770 -6.508150 0.000000 
				CHANNELS 3 Zrotation Yrotation Xrotation
				JOINT RightFoot
				{
					OFFSET -2.534520 -6.963530 0.000000 
					CHANNELS 3 Zrotation Yrotation Xrotation
					JOINT RightToeBase
					{
						OFFSET -0.131560 -0.361450 1.632370 
						CHANNELS 3 Zrotation Yrotation Xrotation
						End Site
						{
							OFFSET -0.000000 -0.000000 0.849790 
						}
					}
				}
			}
		}
	}
	JOINT LowerBack
	{
		OFFSET 0.000000 0.000000 0.000000 
		CHANNELS 3 Zrotation Yrotation Xrotation
		JOINT Spine
		{
			OFFSET -0.024310 1.982420 -0.136160 
			CHANNELS 3 Zrotation Yrotation Xrotation
			JOINT Spine1
			{
				OFFSET 0.036290 1.989740 -0.029540 
				CHANNELS 3 Zrotation Yrotation Xrotation
				JOINT Neck
				{
					OFFSET 0.000000 0.000000 0.000000 
					CHANNELS 3 Zrotation Yrotation Xrotation
					JOINT Neck1
					{
						OFFSET 0.093490 1.407830 0.223330 
						CHANNELS 3 Zrotation Yrotation Xrotation
						JOINT Head
						{
							OFFSET -0.042730 1.445000 -0.064950 
							CHANNELS 3 Zrotation Yrotation Xrotation
							End Site
							{
								OFFSET -0.022510 1.446000 -0.045440 
							}
						}
					}
				}
				JOINT LeftShoulder
				{
					OFFSET 0.000000 0.000000 0.000000 
					CHANNELS 3 Zrotation Yrotation Xrotation
					JOINT LeftArm
					{
						OFFSET 3.491370 0.851260 -0.297400 
						CHANNELS 3 Zrotation Yrotation Xrotation
						JOINT LeftForeArm
						{
							OFFSET 5.060350 -0.000000 0.000000 
							CHANNELS 3 Zrotation Yrotation Xrotation
							JOINT LeftHand
							{
								OFFSET 3.147800 -0.000000 0.000000 
								CHANNELS 3 Zrotation Yrotation Xrotation
								JOINT LeftFingerBase
								{
									OFFSET 0.000000 0.000000 0.000000 
									CHANNELS 3 Zrotation Yrotation Xrotation
									JOINT LeftHandIndex1
									{
										OFFSET 0.606750 -0.000000 0.000000 
										CHANNELS 3 Zrotation Yrotation Xrotation
										End Site
										{
											OFFSET 0.489180 -0.000000 0.000000 
										}
									}
								}
								JOINT LThumb
								{
									OFFSET 0.000000 0.000000 0.000000 
									CHANNELS 3 Zrotation Yrotation Xrotation
									End Site
									{
										OFFSET 0.496640 -0.000000 0.496640 
									}
								}
							}
						}
					}
				}
				JOINT RightShoulder
				{
					OFFSET 0.000000 0.000000 0.000000 
					CHANNELS 3 Zrotation Yrotation Xrotation
					JOINT RightArm
					{
						OFFSET -3.281010 0.697070 0.007470 
						CHANNELS 3 Zrotation Yrotation Xrotation
						JOINT RightForeArm
						{
							OFFSET -5.122730 -0.000000 -0.000000 
							CHANNELS 3 Zrotation Yrotation Xrotation
							JOINT RightHand
							{
								OFFSET -3.422000 -0.000000 0.000000 
								CHANNELS 3 Zrotation Yrotation Xrotation
								JOINT RightFingerBase
								{
									OFFSET 0.000000 0.000000 0.000000 
									CHANNELS 3 Zrotation Yrotation Xrotation
									JOINT RightHandIndex1
									{
										OFFSET -0.704600 -0.000000 0.000000 
										CHANNELS 3 Zrotation Yrotation Xrotation
										End Site
										{
											OFFSET -0.568070 -0.000000 0.000000 
										}
									}
								}
								JOINT RThumb
								{
									OFFSET 0.000000 0.000000 0.000000 
									CHANNELS 3 Zrotation Yrotation Xrotation
									End Site
									{
										OFFSET -0.576740 -0.000000 0.576740 
									}
								}
							}
						}
					}
				}
			}
		}
	}
}
MOTION
Frames: 12
Frame Time: 0.008333
0.000000 15.999992 0.000000 153.485001 88.092697 160.535995 0.000000 0.000000 0.000000 -19.239000 -5.159000 -10.247100 2.064100 8.998400 25.790199 1.419200 6.424400 -25.640301 0.237600 3.137300 8.661200 0.000000 0.000000 0.000000 13.188200 6.155200 -7.459900 -1.348900 -7.352500 20.764099 0.159900 -14.340900 -18.479200 -0.764100 5.582100 -15.576500 -5.144400 -0.974200 -6.869300 0.550000 -0.907800 -2.879100 3.389500 -0.389700 0.962500 2.348900 1.111000 2.825000 1.947900 1.876700 -8.376600 0.154300 0.823800 -3.172800 -0.000000 0.000000 0.000000 -91.725502 -4.867700 14.765700 6.008400 -10.276200 -0.540800 -0.000000 -0.000000 14.703300 16.716900 45.030602 11.996000 -7.125000 0.000000 -0.000000 -37.582298 73.338402 -26.170900 -0.000000 0.000000 0.000000 91.612701 -0.557300 5.198800 -8.746500 14.755500 -1.134700 0.000000 0.000000 17.514000 -24.127501 32.262901 -13.446400 7.125000 -0.000000 -0.000000 4.341300 4.602800 4.688700 
0.000000 15.999992 0.000000 145.757996 88.205704 152.649994 0.000000 0.000000 0.000000 -19.476801 -5.073900 -9.990900 2.056200 8.982100 25.739401 1.413500 6.592200 -25.702400 0.242200 3.167200 8.744700 0.000000 0.000000 0.000000 12.948100 5.887000 -7.511900 -1.369000 -7.405100 20.921301 0.123400 -13.988300 -18.395800 -0.804200 5.723200 -15.983400 -5.177400 -1.000600 -6.904900 0.467300 -0.937300 -2.800200 3.319100 -0.409700 1.065800 2.036500 1.027800 2.709600 2.016400 1.743000 -8.263800 0.236200 0.765900 -3.115800 0.000000 0.000000 0.000000 -91.694801 -4.856000 14.838600 6.053600 -10.351500 -0.548800 -0.000000 -0.000000 14.285000 16.797701 44.884602 12.025800 -7.125000 0.000000 -0.000000 -37.139702 73.262604 -25.783600 0.000000 0.000000 0.000000 91.654800 -0.485100 5.282200 -8.707400 14.693000 -1.124800 0.000000 0.000000 17.838600 -24.081100 32.265900 -13.419400 7.125000 -0.000000 -0.000000 4.367800 4.595100 4.716900 
0.000000 15.999992 0.000000 142.863998 88.132202 149.695999 0.000000 0.000000 0.000000 -19.603201 -4.995000 -9.920000 2.048400 8.966300 25.689800 1.421400 6.480900 -25.692101 0.248700 3.209100 8.861400 0.000000 0.000000 0.000000 12.826400 5.502600 -7.538300 -1.367000 -7.399800 20.905399 0.091400 -13.681500 -18.334999 -0.804700 5.725200 -15.989100 -5.461400 -1.131900 -6.810300 0.644000 -1.103500 -2.824500 3.650400 -0.488800 1.011400 1.281200 1.002200 2.448200 2.322400 1.665700 -7.842500 0.469700 0.744300 -2.932800 -0.000000 -0.000000 0.000000 -92.069099 -4.900900 14.065700 6.032100 -10.315700 -0.545000 -0.000000 -0.000000 14.719000 16.653799 44.870201 11.916900 -7.125000 0.000000 -0.000000 -37.259899 73.199799 -25.825199 -0.000000 -0.000000 0.000000 91.266602 -0.522200 5.614000 -8.698900 14.679300 -1.122600 0.000000 0.000000 17.957399 -23.799200 32.368900 -13.285200 7.125000 -0.000000 -0.000000 4.542600 4.635800 4.909800 
0.000000 15.999992 0.000000 146.897995 88.044998 153.850006 0.000000 0.000000 0.000000 -19.462400 -4.887100 -10.153600 2.048300 8.966000 25.689199 1.443000 6.151000 -25.649900 0.253300 3.238300 8.943000 0.000000 0.000000 0.000000 12.931200 5.800900 -7.589600 -1.366400 -7.398200 20.900499 0.128300 -14.045300 -18.421101 -0.763700 5.580600 -15.572300 -5.479900 -1.167700 -6.810400 0.682300 -1.150100 -2.895800 3.697600 -0.507500 0.943500 1.083100 0.804200 2.371100 2.390400 1.389400 -7.756100 0.535100 0.611400 -2.889600 0.000000 0.000000 0.000000 -92.095703 -4.994200 13.792600 6.018600 -10.293200 -0.542600 -0.000000 -0.000000 15.066600 16.526899 45.122002 11.874200 -7.125000 0.000000 -0.000000 -38.009701 73.334702 -26.487499 0.000000 0.000000 0.000000 91.212097 -0.540800 5.746400 -8.719600 14.712500 -1.127900 0.000000 0.000000 17.761200 -23.443600 32.403099 -13.082000 7.125000 -0.000000 -0.000000 4.747200 4.589600 5.128900 
0.000000 15.999992 0.000000 150.408005 87.938499 157.612000 0.000000 0.000000 0.000000 -19.332199 -4.846400 -10.488200 2.041900 8.952700 25.647600 1.458600 5.823500 -25.570000 0.243100 3.173000 8.760700 0.000000 0.000000 0.000000 13.035600 5.939300 -7.762200 -1.367000 -7.399900 20.905800 0.065100 -13.897700 -18.981199 -0.613600 5.013600 -13.947300 -5.390000 -1.185500 -6.968500 0.612800 -1.166800 -2.982300 3.572000 -0.512900 0.940800 1.183000 0.510800 2.498100 2.236900 0.997600 -7.938400 0.481300 0.416200 -2.970300 0.000000 0.000000 0.000000 -91.919998 -4.997900 14.379500 6.071600 -10.381600 -0.552100 -0.000000 -0.000000 14.639000 16.617201 45.249699 11.966600 -7.125000 0.000000 -0.000000 -38.230499 73.458504 -26.748699 0.000000 0.000000 0.000000 91.370300 -0.497900 5.727500 -8.725700 14.722200 -1.129400 0.000000 0.000000 17.597500 -23.535500 32.268101 -13.090400 7.125000 -0.000000 -0.000000 4.674000 4.472200 5.040400 
0.000000 15.999992 0.000000 149.089996 87.979301 156.085999 0.000000 0.000000 0.000000 -19.410299 -4.983500 -10.189200 2.048800 8.966900 25.691900 1.447900 6.087100 -25.648199 0.296500 3.501300 9.677700 0.000000 0.000000 0.000000 13.000500 5.956800 -7.513800 -1.356900 -7.373600 20.827101 0.147100 -14.218800 -18.451700 -0.721900 5.429100 -15.136500 -5.129400 -1.104500 -6.907800 0.406500 -1.076500 -2.889200 3.218500 -0.474600 0.987000 1.210200 0.236700 2.620300 2.226200 0.639300 -8.118000 0.485700 0.235600 -3.052100 -0.000000 -0.000000 0.000000 -91.574501 -4.928100 15.520100 6.181700 -10.564800 -0.572100 -0.000000 -0.000000 13.575200 16.597300 45.334400 11.968800 -7.125000 0.000000 -0.000000 -38.463402 73.511101 -26.964800 -0.000000 -0.000000 0.000000 91.656998 -0.396800 5.512700 -8.678100 14.645900 -1.117300 0.000000 0.000000 17.751900 -24.058300 32.000198 -13.310400 7.125000 -0.000000 -0.000000 4.337100 4.316800 4.664200 
0.000000 15.999992 0.000000 149.052994 88.070099 156.070007 0.000000 0.000000 0.000000 -19.395100 -5.134100 -10.113500 2.044700 8.958500 25.665701 1.425700 6.306700 -25.616301 0.284400 3.429900 9.477900 0.000000 0.000000 0.000000 13.033400 5.764900 -7.565600 -1.355300 -7.369300 20.814100 0.110400 -13.924400 -18.462200 -0.731700 5.465200 -15.240400 -5.272100 -1.053400 -6.976900 0.566500 -0.997800 -2.915900 3.470500 -0.433100 0.994700 1.123900 -0.004500 2.653200 1.911300 0.284700 -8.168800 0.411300 0.071200 -3.072200 -0.000000 -0.000000 0.000000 -91.837799 -4.905400 15.711700 6.209800 -10.611600 -0.577300 -0.000000 -0.000000 13.471900 16.344299 45.436199 11.801500 -7.125000 0.000000 -0.000000 -38.986801 73.490196 -27.342800 -0.000000 -0.000000 0.000000 91.326897 -0.409800 5.667900 -8.649700 14.600300 -1.110100 0.000000 0.000000 17.507799 -24.321899 31.727100 -13.370200 7.125000 -0.000000 -0.000000 4.144100 4.096700 4.440900 
0.000000 15.999992 0.000000 151.705002 88.039803 158.705994 0.000000 0.000000 0.000000 -19.282101 -5.022500 -10.160200 2.043300 8.955700 25.656700 1.426700 6.095400 -25.494600 0.283000 3.421200 9.453700 0.000000 0.000000 0.000000 13.129200 6.058900 -7.482500 -1.359800 -7.381200 20.849600 0.120500 -14.121500 -18.635799 -0.689500 5.308700 -14.791100 -4.986100 -1.007400 -6.962900 0.340100 -0.951900 -2.878900 3.078200 -0.414200 1.013800 1.920500 -0.351500 2.954200 1.263600 -0.169700 -8.564500 0.081200 -0.160200 -3.264600 -0.000000 -0.000000 0.000000 -91.426300 -5.036900 16.045000 6.210000 -10.612000 -0.577300 -0.000000 -0.000000 13.227100 15.981400 45.546101 11.553900 -7.125000 0.000000 -0.000000 -39.643700 73.434097 -27.794600 -0.000000 -0.000000 0.000000 91.708000 -0.346300 5.729500 -8.687400 14.660800 -1.119700 0.000000 0.000000 17.234699 -24.320499 31.583401 -13.317000 7.125000 -0.000000 -0.000000 4.121500 3.948400 4.406600 
0.000000 15.999992 0.000000 151.869003 87.993896 159.052002 0.000000 0.000000 0.000000 -19.269699 -5.062100 -10.333900 2.035300 8.939100 25.605101 1.422700 6.090100 -25.461599 0.236700 3.131100 8.643900 0.000000 0.000000 0.000000 13.113200 6.092000 -7.682300 -1.366500 -7.398500 20.901400 0.082800 -13.987100 -18.898701 -0.631000 5.082800 -14.144800 -5.320400 -1.104400 -7.076900 0.614900 -1.056500 -2.966100 3.542400 -0.460100 1.005600 1.235700 -0.489500 2.777600 1.418200 -0.393900 -8.390500 0.257500 -0.254500 -3.169000 0.000000 -0.000000 0.000000 -91.924202 -5.146200 15.342600 6.143700 -10.501600 -0.565200 -0.000000 -0.000000 13.854800 15.856400 45.366901 11.427000 -7.125000 0.000000 -0.000000 -39.323502 73.263603 -27.417000 0.000000 -0.000000 0.000000 91.226196 -0.425600 6.226200 -8.746300 14.755200 -1.134600 0.000000 0.000000 16.719801 -24.203300 31.674400 -13.280000 7.125000 -0.000000 -0.000000 4.202500 4.015100 4.498200 
0.000000 15.999992 0.000000 147.981995 87.909599 155.014999 0.000000 0.000000 0.000000 -19.499901 -5.360400 -10.006600 2.035500 8.939700 25.606701 1.417200 6.430100 -25.628799 0.317400 3.621800 10.014900 0.000000 0.000000 0.000000 12.920700 5.877700 -7.569500 -1.364900 -7.394400 20.889200 0.014300 -13.612400 -19.177799 -0.554000 4.767800 -13.247400 -5.209500 -1.117100 -7.063800 0.400300 -1.077600 -2.896100 3.255100 -0.475900 1.067500 1.153700 -0.712100 2.898400 1.575400 -0.678800 -8.517100 0.334200 -0.400200 -3.234500 -0.000000 -0.000000 0.000000 -91.698799 -5.215100 15.307300 6.141300 -10.497700 -0.564700 -0.000000 -0.000000 13.924800 16.135799 45.074501 11.576300 -7.125000 0.000000 -0.000000 -38.308998 73.158699 -26.574499 -0.000000 -0.000000 0.000000 91.508400 -0.376600 5.948000 -8.722700 14.717500 -1.128600 0.000000 0.000000 17.070999 -23.983801 31.938999 -13.243800 7.125000 -0.000000 -0.000000 4.368900 4.236900 4.693000 
0.000000 15.999992 0.000000 145.345993 87.982498 152.412003 0.000000 0.000000 0.000000 -19.602900 -5.703400 -9.831300 2.025900 8.919800 25.544600 1.391500 6.868100 -25.713400 0.366200 3.887200 10.759600 0.000000 0.000000 0.000000 12.816300 5.531000 -7.739800 -1.367800 -7.401800 20.911301 -0.044000 -13.187800 -19.272100 -0.575400 4.857600 -13.502900 -5.421700 -1.142700 -7.155300 0.582600 -1.095000 -2.931600 3.561500 -0.482100 1.089600 0.989700 -0.968700 2.722600 1.016100 -1.091900 -8.275100 0.194200 -0.580200 -3.118500 0.000000 0.000000 0.000000 -92.047798 -5.119100 15.329700 6.170800 -10.546700 -0.570100 -0.000000 -0.000000 13.881200 16.536501 44.856400 11.827900 -7.125000 0.000000 -0.000000 -37.353001 73.147499 -25.854401 0.000000 0.000000 0.000000 91.133698 -0.470700 6.372800 -8.735600 14.738100 -1.131900 0.000000 0.000000 16.905800 -23.738501 32.038399 -13.131800 7.125000 -0.000000 -0.000000 4.523000 4.282900 4.862800 
0.000000 15.999992 0.000000 152.645004 87.510803 159.779999 0.000000 0.000000 0.000000 -19.396500 -5.191300 -10.334000 2.036000 8.940600 25.609699 1.447100 5.849500 -25.499599 0.334100 3.714800 10.275700 0.000000 0.000000 0.000000 12.940800 5.503600 -7.785400 -1.365000 -7.394800 20.890301 0.094700 -13.997600 -18.768200 -0.669800 5.233800 -14.576600 -5.662600 -1.381400 -6.861100 0.743200 -1.419300 -3.036400 3.842900 -0.632700 0.859200 0.939100 -1.218100 2.351600 0.537000 -1.480700 -7.868600 0.057400 -0.754800 -2.913200 0.000000 0.000000 0.000000 -92.201500 -5.061500 15.535800 6.203300 -10.600700 -0.576100 -0.000000 -0.000000 13.611000 16.759899 44.964401 12.014300 -7.125000 0.000000 -0.000000 -37.374401 73.306503 -25.991600 0.000000 0.000000 0.000000 90.885101 -0.496000 6.931300 -8.722700 14.717400 -1.128600 0.000000 0.000000 16.580500 -23.921301 32.045898 -13.244400 7.125000 -0.000000 -0.000000 4.421400 4.332300 4.756500 
